<?xml version="1.0" encoding="UTF-8"?>
<svg id="Layer_1" data-name="Layer 1" xmlns="http://www.w3.org/2000/svg" viewBox="0 0 1654.44 1500">
  <defs>
    <style>
      .cls-1 {
        fill: #05b04c;
      }

      .cls-2 {
        fill: #fff;
      }

      .cls-3 {
        fill: #1d3f1f;
      }
    </style>
  </defs>
  <rect class="cls-1" x="329.97" y="238.07" width="1040.32" height="1000.96" rx="183.6" ry="183.6"/>
  <path class="cls-3" d="M1000.08,1037.37h-299.9c-.36,0-.71,0-1.07-.01-96.76-2.35-173.68-82.83-171.73-179.53v-184.25c-.1-67.96,32.12-133.1,86.21-174.26,1.24-.94,2.52-1.82,3.85-2.62l121.7-73.8c68.44-41.56,153.51-41.57,221.98.02l121.71,73.78c1.33.81,2.62,1.68,3.86,2.63,54.08,41.16,86.31,106.3,86.21,174.26v184.25c1.95,96.7-74.97,177.19-171.74,179.53-.36,0-.71.01-1.07.01ZM700.81,948.85h298.64c47.99-1.4,86.05-41.46,84.93-89.5,0-.35-.01-.69-.01-1.03v-184.8c.06-39.78-18.44-77.88-49.58-102.43l-119.59-72.5c-40.15-24.38-90-24.39-130.13-.02l-119.58,72.52c-31.15,24.55-49.64,62.65-49.58,102.36v184.87c0,.34,0,.68-.01,1.03-1.12,48.05,36.94,88.11,84.93,89.5Z"/>
  <polyline class="cls-2" points="850.13 795.19 850.13 869.01 694.35 869.01 694.35 795.19"/>
  <polyline class="cls-2" points="1005.91 795.19 1005.91 869.01 850.13 869.01 850.13 795.19"/>
</svg>