<?xml version="1.0" encoding="UTF-8"?>
<svg id="Layer_1" data-name="Layer 1" xmlns="http://www.w3.org/2000/svg" viewBox="0 0 4301.84 1500">
  <defs>
    <style>
      .cls-1 {
        fill: #05b04c;
      }

      .cls-2 {
        fill: #1d3f1f;
      }
    </style>
  </defs>
  <g>
    <path class="cls-2" d="M2262.81,643.41c0,53.55-23.37,111.96-94.44,135.33,82.75,18.5,113.91,87.63,113.91,152.86,0,135.33-85.68,191.8-256.06,191.8h-313.5V461.34h293.05c169.41,0,257.04,60.36,257.04,182.06ZM2089.51,660.93c0-40.89-23.37-63.29-85.68-63.29h-122.68v125.6h122.68c62.31,0,85.68-21.42,85.68-62.31ZM1881.15,987.09h144.1c62.31,0,83.73-27.26,83.73-68.15s-21.42-67.18-83.73-68.15h-144.1v136.31Z"/>
    <path class="cls-2" d="M2784.63,636.59v486.8h-144.09l-15.58-68.15c-34.08,51.6-84.7,77.89-145.06,77.89-109.04,0-168.44-60.37-168.44-183.04v-305.71l160.64-17.52v318.37c0,43.81,25.32,68.15,74,68.15,34.08,0,58.42-14.6,77.89-33.1v-343.68h160.64Z"/>
    <path class="cls-2" d="M2843.03,1123.4v-486.8h160.64v486.8h-160.64Z"/>
    <path class="cls-2" d="M3062.06,430.19l160.65-17.53v710.74h-160.65V430.19Z"/>
    <path class="cls-2" d="M3616.03,706.69v-276.5l160.64-17.53v710.74h-144.1l-16.54-70.1c-28.24,44.78-74,79.84-145.07,79.84-129.49,0-211.27-98.34-211.27-253.14s81.79-253.13,211.27-253.13c71.07,0,116.83,35.05,145.07,79.83ZM3616.03,977.36v-194.72c-21.43-19.48-49.66-37-88.6-37-70.1,0-103.2,56.47-103.2,134.36s33.1,133.39,103.2,133.39c38.94,0,67.18-16.55,88.6-36.02Z"/>
  </g>
  <path class="cls-2" d="M1163.06,1282.11h-494.32c-.59,0-1.18,0-1.77-.02-159.49-3.87-286.28-136.52-283.07-295.91v-303.7c-.17-112.02,52.95-219.39,142.1-287.23,2.04-1.55,4.16-3,6.35-4.32l200.6-121.65c112.81-68.51,253.03-68.52,365.88.02l200.62,121.62c2.19,1.33,4.31,2.78,6.36,4.33,89.15,67.84,142.26,175.22,142.1,287.23v303.7c3.22,159.39-123.58,292.05-283.07,295.91-.59.01-1.18.02-1.77.02ZM669.78,1136.2h492.24c79.1-2.3,141.84-68.33,139.99-147.53-.01-.57-.02-1.13-.02-1.7v-304.61c.1-65.57-30.39-128.37-81.73-168.83l-197.13-119.5c-66.18-40.19-148.35-40.2-214.49-.03l-197.11,119.53c-51.34,40.47-81.82,103.26-81.73,168.72v304.72c0,.56,0,1.13-.02,1.7-1.85,79.2,60.89,145.23,139.98,147.53Z"/>
  <polyline class="cls-1" points="915.91 882.92 915.91 1004.6 659.14 1004.6 659.14 882.92"/>
  <polyline class="cls-1" points="1172.67 882.92 1172.67 1004.6 915.91 1004.6 915.91 882.92"/>
  <rect class="cls-2" x="2843.03" y="427.39" width="160.64" height="121.68"/>
</svg>