<?xml version="1.0" encoding="UTF-8"?>
<svg id="Layer_1" data-name="Layer 1" xmlns="http://www.w3.org/2000/svg" viewBox="0 0 4301.84 1500">
  <defs>
    <style>
      .cls-1 {
        fill: #05b04c;
      }

      .cls-2 {
        fill: #1d3f1f;
      }
    </style>
  </defs>
  <g>
    <path class="cls-2" d="M1055.18,874.94v136.94c0,5.7-3.81,10.46-9.51,10.46-55.16,0-103.65-19.98-141.69-57.06-38.04,38.04-97.95,57.06-178.79,57.06h-213.02l-22.82-156.92h237.75c53.26,0,78.93-29.48,78.93-73.22v-30.43c-.95-50.4-42.8-84.64-103.66-84.64h-64.66v-152.16h98.9c129.33,0,218.72,77.98,218.72,223.48v74.18c0,6.66,0,13.31-.95,19.97,25.68,14.26,54.21,22.82,91.29,22.82,5.7,0,9.51,3.81,9.51,9.51Z"/>
    <path class="cls-2" d="M1239.65,874.94v136.94c0,5.7-3.81,10.46-9.51,10.46h-184.49c-5.7,0-9.51-4.76-9.51-10.46v-136.94c0-5.7,3.81-9.51,9.51-9.51h184.49c5.7,0,9.51,3.81,9.51,9.51Z"/>
    <path class="cls-2" d="M1552.52,1011.88c0,5.7-3.81,10.46-9.51,10.46-83.69,0-143.6-19.98-181.64-59.91-43.75,40.89-80.84,59.91-131.24,59.91-5.7,0-9.51-4.76-9.51-10.46v-136.94c0-5.7,3.81-9.51,9.51-9.51,35.18,0,62.77-8.56,85.59-24.72-.95-6.66-.95-13.32-.95-19.98l-.95-475.49,149.3-17.12v439.35c0,67.52,24.73,97.95,78.93,97.95,5.7,0,9.51,3.81,9.51,9.51l.95,136.94Z"/>
    <path class="cls-2" d="M1737.95,874.94v136.94c0,5.7-3.81,10.46-9.51,10.46h-184.49c-5.7,0-9.51-4.76-9.51-10.46v-136.94c0-5.7,3.81-9.51,9.51-9.51h184.49c5.7,0,9.51,3.81,9.51,9.51Z"/>
    <path class="cls-2" d="M2105.96,874.94v136.94c0,5.7-3.8,10.46-9.5,10.46-50.41,0-104.61-25.68-149.31-71.33-43.74,47.55-118.87,71.33-218.72,71.33-5.7,0-9.51-4.76-9.51-10.46l1.9-136.94c0-5.7,3.81-9.51,9.51-9.51,74.18,0,114.12-28.53,114.12-97l-.95-114.12,148.35-17.12v197.81c31.38,19.98,67.53,30.43,104.61,30.43,5.7,0,9.5,3.81,9.5,9.51Z"/>
    <path class="cls-2" d="M2290.44,874.94v136.94c0,5.7-3.81,10.46-9.51,10.46h-184.49c-5.7,0-9.51-4.76-9.51-10.46v-136.94c0-5.7,3.81-9.51,9.51-9.51h184.49c5.7,0,9.51,3.81,9.51,9.51Z"/>
    <path class="cls-2" d="M2271.41,1011.88l1.9-136.94c0-5.7,3.81-9.51,9.51-9.51,53.26,0,78.93-29.48,78.93-97l-.95-210.17,148.36-18.07v282.44c0,131.24-75.13,199.71-228.24,199.71-5.7,0-9.51-4.76-9.51-10.46Z"/>
  </g>
  <rect class="cls-2" x="2294.61" y="1111.77" width="118.86" height="118.86"/>
  <rect class="cls-2" x="1803.66" y="1111.77" width="118.86" height="118.86"/>
  <rect class="cls-2" x="1922.52" y="1111.77" width="118.86" height="118.86"/>
  <path class="cls-2" d="M3534.22,1270.2h-482.84c-.57,0-1.15,0-1.72-.02-155.78-3.78-279.63-133.35-276.49-289.04v-296.64c-.16-109.42,51.72-214.29,138.79-280.56,1.99-1.52,4.06-2.93,6.2-4.22l195.94-118.82c110.19-66.92,247.15-66.93,357.38.02l195.95,118.79c2.14,1.3,4.21,2.71,6.21,4.23,87.08,66.26,138.96,171.14,138.79,280.56v296.64c3.14,155.69-120.71,285.27-276.49,289.04-.57.01-1.15.02-1.72.02ZM3052.4,1127.68h480.8c77.26-2.25,138.54-66.74,136.74-144.1-.01-.56-.02-1.11-.02-1.66v-297.53c.1-64.05-29.68-125.39-79.83-164.91l-192.55-116.73c-64.64-39.26-144.91-39.27-209.51-.03l-192.53,116.76c-50.15,39.53-79.92,100.86-79.83,164.8v297.64c0,.55,0,1.1-.02,1.66-1.8,77.36,59.48,141.85,136.73,144.1Z"/>
  <polyline class="cls-1" points="3292.8 880.28 3292.8 999.14 3042 999.14 3042 880.28"/>
  <polyline class="cls-1" points="3543.61 880.28 3543.61 999.14 3292.8 999.14 3292.8 880.28"/>
</svg>